<svg xmlns="http://www.w3.org/2000/svg" width="208.701" height="112.316" viewBox="0 0 208.701 112.316">
  <defs>
    <style>
      .cls-1 {
        fill: #914ab5;
      }

      .cls-2 {
        fill: #707070;
      }
    </style>
  </defs>
  <g id="Arrow" transform="translate(-1479 -589.684)">
    <path id="Path_1" data-name="Path 1" class="cls-1" d="M1567.928,734.8q-8.125,0-16.562-.311l.111-3A384.4,384.4,0,0,0,1604.842,730a252.758,252.758,0,0,0,41.244-7.568,185.936,185.936,0,0,0,31.246-11.655A165.4,165.4,0,0,0,1700.723,697a109.752,109.752,0,0,0,23.43-21.872,82.579,82.579,0,0,0,11.7-20.045c4.727-11.77,4.523-20.07,4.52-20.152l3-.1a37.364,37.364,0,0,1-.492,6.073,68.577,68.577,0,0,1-4.243,15.293,85.576,85.576,0,0,1-12.119,20.776,112.746,112.746,0,0,1-24.066,22.477,168.382,168.382,0,0,1-23.811,14.024,188.951,188.951,0,0,1-31.751,11.845,255.757,255.757,0,0,1-41.736,7.661A362.872,362.872,0,0,1,1567.928,734.8Z" transform="translate(-55.67 -45.154)"/>
    <path id="Polygon_1" data-name="Polygon 1" class="cls-1" d="M13.293,5.668a3,3,0,0,1,5.414,0L29.95,29.207A3,3,0,0,1,27.243,33.5H4.757A3,3,0,0,1,2.05,29.207Z" transform="translate(1479 702) rotate(-90)"/>
    <path id="Polygon_1_-_Outline" data-name="Polygon 1 - Outline" class="cls-2" d="M16,4.961A1.959,1.959,0,0,0,14.2,6.1L2.953,29.638a2,2,0,0,0,1.8,2.862H27.243a2,2,0,0,0,1.8-2.862L17.8,6.1A1.959,1.959,0,0,0,16,4.961m0-1a2.963,2.963,0,0,1,2.707,1.707L29.95,29.207A3,3,0,0,1,27.243,33.5H4.757A3,3,0,0,1,2.05,29.207L13.293,5.668A2.963,2.963,0,0,1,16,3.961Z" transform="translate(1479 702) rotate(-90)"/>
  </g>
</svg>
