<svg xmlns="http://www.w3.org/2000/svg" width="103.337" height="102.502" viewBox="0 0 103.337 102.502">
  <defs>
    <style>
      .cls-1 {
        font-size: 68px;
        font-family: Lato-Regular, Lato;
        letter-spacing: 0.04em;
      }

      .cls-2 {
        fill-rule: evenodd;
      }
    </style>
  </defs>
  <g id="Group_13" data-name="Group 13" transform="translate(-231 -1665.498)">
    <text id="_2" data-name="2" class="cls-1" transform="translate(263 1735)"><tspan x="0" y="0">2</tspan></text>
    <g id="noun-circle-2558926" transform="translate(160.937 1618.87)">
      <path id="Path_17" data-name="Path 17" class="cls-2" d="M138.778,53.372c8.739-3.984,27.5,1.414,34.187,5.526,7.326,4.627,13.88,14.394,16.193,25.19,6.04,29.817-11.31,39.841-35.087,45.624-11.824,2.828-25.7,3.084-35.728-2.185-7.583-3.984-15.808-13.366-14.265-26.219,2.442-21.334,20.434-41.383,34.7-47.937Zm2.7-6.3c-5.655.642-4.755.257-9.125,3.084-15.679,10.153-31.1,28.532-33.671,48.194-6.3,47.552,59.89,46.781,86.365,23.262C208.822,100.41,194.3,40.9,141.479,47.074Z" transform="translate(-22.717 0)"/>
      <g id="Group_18" data-name="Group 18" transform="translate(70.084 147.871)">
        <path id="Path_18" data-name="Path 18" d="M.57-2a.381.381,0,0,1-.07.024.315.315,0,0,1-.076.009.263.263,0,0,1-.185-.064A.24.24,0,0,1,.172-2.21a.232.232,0,0,1,.067-.176.258.258,0,0,1,.185-.067A.315.315,0,0,1,.5-2.444a.239.239,0,0,1,.07.024v.1A.273.273,0,0,0,.5-2.353a.211.211,0,0,0-.067-.012.129.129,0,0,0-.1.043A.16.16,0,0,0,.3-2.21a.171.171,0,0,0,.036.115.132.132,0,0,0,.1.039A.257.257,0,0,0,.5-2.064.323.323,0,0,0,.57-2.1Z" transform="translate(-0.172 2.453)"/>
      </g>
      <g id="Group_19" data-name="Group 19" transform="translate(70.577 147.986)">
        <path id="Path_19" data-name="Path 19" d="M.542-1.753a.11.11,0,0,0-.03-.012l-.027,0a.085.085,0,0,0-.07.03.125.125,0,0,0-.021.079V-1.5H.281V-1.85H.394v.058a.141.141,0,0,1,.049-.049.126.126,0,0,1,.067-.018l.012,0H.542Z" transform="translate(-0.281 1.859)"/>
      </g>
      <g id="Group_20" data-name="Group 20" transform="translate(70.866 147.986)">
        <path id="Path_20" data-name="Path 20" d="M.52-1.674v.03H.256a.081.081,0,0,0,.027.061.114.114,0,0,0,.07.018.3.3,0,0,0,.073-.009A.43.43,0,0,0,.5-1.607v.088A.349.349,0,0,1,.423-1.5a.367.367,0,0,1-.082.009.214.214,0,0,1-.149-.049.175.175,0,0,1-.052-.137.174.174,0,0,1,.052-.134.194.194,0,0,1,.143-.052.177.177,0,0,1,.134.052.177.177,0,0,1,.052.134ZM.4-1.714a.066.066,0,0,0-.018-.049.063.063,0,0,0-.049-.021.079.079,0,0,0-.055.018.094.094,0,0,0-.024.052Z" transform="translate(-0.141 1.859)"/>
      </g>
      <g id="Group_21" data-name="Group 21" transform="translate(71.302 147.986)">
        <path id="Path_21" data-name="Path 21" d="M.326-1.656a.1.1,0,0,0-.055.012.039.039,0,0,0-.018.033.038.038,0,0,0,.015.033.059.059,0,0,0,.039.012.074.074,0,0,0,.055-.021.086.086,0,0,0,.021-.058v-.012ZM.5-1.7v.2H.384V-1.55A.14.14,0,0,1,.332-1.5a.14.14,0,0,1-.067.015.136.136,0,0,1-.091-.03A.112.112,0,0,1,.141-1.6a.1.1,0,0,1,.043-.088.236.236,0,0,1,.134-.03H.384v-.009a.043.043,0,0,0-.021-.039A.147.147,0,0,0,.3-1.783a.249.249,0,0,0-.067.009.341.341,0,0,0-.058.018v-.085a.487.487,0,0,1,.073-.012.472.472,0,0,1,.073-.006.193.193,0,0,1,.137.039A.154.154,0,0,1,.5-1.7Z" transform="translate(-0.141 1.859)"/>
      </g>
      <g id="Group_22" data-name="Group 22" transform="translate(71.717 147.895)">
        <path id="Path_22" data-name="Path 22" d="M.214-2.328v.1H.329v.082H.214V-2a.046.046,0,0,0,.009.033.085.085,0,0,0,.039.006H.32v.082h-.1A.137.137,0,0,1,.129-1.9.13.13,0,0,1,.1-2v-.149H.047v-.082H.1v-.1Z" transform="translate(-0.047 2.328)"/>
      </g>
      <g id="Group_23" data-name="Group 23" transform="translate(72.043 147.986)">
        <path id="Path_23" data-name="Path 23" d="M.52-1.674v.03H.256a.081.081,0,0,0,.027.061.114.114,0,0,0,.07.018.3.3,0,0,0,.073-.009A.43.43,0,0,0,.5-1.607v.088A.349.349,0,0,1,.423-1.5a.367.367,0,0,1-.082.009.214.214,0,0,1-.149-.049.175.175,0,0,1-.052-.137.174.174,0,0,1,.052-.134.194.194,0,0,1,.143-.052.177.177,0,0,1,.134.052.177.177,0,0,1,.052.134ZM.4-1.714a.066.066,0,0,0-.018-.049.063.063,0,0,0-.049-.021.079.079,0,0,0-.055.018.094.094,0,0,0-.024.052Z" transform="translate(-0.141 1.859)"/>
      </g>
      <g id="Group_24" data-name="Group 24" transform="translate(72.482 147.859)">
        <path id="Path_24" data-name="Path 24" d="M.42-2.327v-.188H.533v.489H.42v-.052a.177.177,0,0,1-.052.046A.14.14,0,0,1,.3-2.018.13.13,0,0,1,.2-2.069.212.212,0,0,1,.156-2.2.213.213,0,0,1,.2-2.336.133.133,0,0,1,.3-2.388a.132.132,0,0,1,.064.015A.19.19,0,0,1,.42-2.327ZM.345-2.1A.063.063,0,0,0,.4-2.124.129.129,0,0,0,.42-2.2.125.125,0,0,0,.4-2.279a.061.061,0,0,0-.055-.027.061.061,0,0,0-.055.027A.137.137,0,0,0,.272-2.2a.141.141,0,0,0,.018.079A.063.063,0,0,0,.345-2.1Z" transform="translate(-0.156 2.516)"/>
      </g>
      <g id="Group_25" data-name="Group 25" transform="translate(73.189 147.859)">
        <path id="Path_25" data-name="Path 25" d="M.47-2.1a.06.06,0,0,0,.052-.024A.129.129,0,0,0,.542-2.2a.125.125,0,0,0-.021-.076A.059.059,0,0,0,.47-2.306a.069.069,0,0,0-.058.027A.137.137,0,0,0,.394-2.2a.141.141,0,0,0,.018.079A.071.071,0,0,0,.47-2.1ZM.394-2.327a.191.191,0,0,1,.052-.046.132.132,0,0,1,.064-.015.129.129,0,0,1,.106.052A.206.206,0,0,1,.658-2.2a.2.2,0,0,1-.043.134.127.127,0,0,1-.106.052.132.132,0,0,1-.064-.015.168.168,0,0,1-.052-.046v.052H.281v-.489H.394Z" transform="translate(-0.281 2.516)"/>
      </g>
      <g id="Group_26" data-name="Group 26" transform="translate(73.604 147.995)">
        <path id="Path_26" data-name="Path 26" d="M.047-1.812H.159l.094.24.079-.24H.445L.3-1.427a.226.226,0,0,1-.055.082.113.113,0,0,1-.076.024H.1V-1.4H.138a.067.067,0,0,0,.039-.009A.054.054,0,0,0,.2-1.436l0-.012Z" transform="translate(-0.047 1.813)"/>
      </g>
      <g id="Group_27" data-name="Group 27" transform="translate(74.283 147.871)">
        <path id="Path_27" data-name="Path 27" d="M.575-2.432v.1A.325.325,0,0,0,.5-2.356a.29.29,0,0,0-.07-.009.135.135,0,0,0-.064.012.035.035,0,0,0-.021.036.035.035,0,0,0,.015.03.15.15,0,0,0,.052.015l.052.012a.222.222,0,0,1,.109.049A.115.115,0,0,1,.6-2.122.147.147,0,0,1,.559-2a.223.223,0,0,1-.14.036.464.464,0,0,1-.091-.009A.558.558,0,0,1,.24-2v-.1a.33.33,0,0,0,.085.036.286.286,0,0,0,.082.012.123.123,0,0,0,.061-.012A.047.047,0,0,0,.49-2.107.042.042,0,0,0,.474-2.14a.164.164,0,0,0-.058-.021L.371-2.171a.2.2,0,0,1-.1-.049.117.117,0,0,1-.033-.088A.132.132,0,0,1,.28-2.417a.2.2,0,0,1,.131-.036.562.562,0,0,1,.079.006.489.489,0,0,1,.085.015Z" transform="translate(-0.234 2.453)"/>
      </g>
      <g id="Group_28" data-name="Group 28" transform="translate(74.752 147.995)">
        <path id="Path_28" data-name="Path 28" d="M.266-1.6v-.216H.378v.228a.039.039,0,0,0,.009.024A.041.041,0,0,0,.4-1.542a.052.052,0,0,0,.027.006.061.061,0,0,0,.055-.027.124.124,0,0,0,.021-.076v-.173H.618v.352H.506v-.052a.169.169,0,0,1-.055.046.126.126,0,0,1-.061.015A.12.12,0,0,1,.3-1.488.172.172,0,0,1,.266-1.6Z" transform="translate(-0.266 1.813)"/>
      </g>
      <g id="Group_29" data-name="Group 29" transform="translate(75.212 147.859)">
        <path id="Path_29" data-name="Path 29" d="M.47-2.1a.06.06,0,0,0,.052-.024A.129.129,0,0,0,.542-2.2a.125.125,0,0,0-.021-.076A.059.059,0,0,0,.47-2.306a.069.069,0,0,0-.058.027A.137.137,0,0,0,.394-2.2a.141.141,0,0,0,.018.079A.071.071,0,0,0,.47-2.1ZM.394-2.327a.191.191,0,0,1,.052-.046.132.132,0,0,1,.064-.015.129.129,0,0,1,.106.052A.206.206,0,0,1,.658-2.2a.2.2,0,0,1-.043.134.127.127,0,0,1-.106.052.132.132,0,0,1-.064-.015.168.168,0,0,1-.052-.046v.052H.281v-.489H.394Z" transform="translate(-0.281 2.516)"/>
      </g>
      <g id="Group_30" data-name="Group 30" transform="translate(75.669 147.995)">
        <path id="Path_30" data-name="Path 30" d="M.266-1.6v-.216H.378v.228a.039.039,0,0,0,.009.024A.041.041,0,0,0,.4-1.542a.052.052,0,0,0,.027.006.061.061,0,0,0,.055-.027.124.124,0,0,0,.021-.076v-.173H.618v.352H.506v-.052a.169.169,0,0,1-.055.046.126.126,0,0,1-.061.015A.12.12,0,0,1,.3-1.488.172.172,0,0,1,.266-1.6Z" transform="translate(-0.266 1.813)"/>
      </g>
      <g id="Group_31" data-name="Group 31" transform="translate(76.13 147.986)">
        <path id="Path_31" data-name="Path 31" d="M.542-1.753a.11.11,0,0,0-.03-.012l-.027,0a.085.085,0,0,0-.07.03.125.125,0,0,0-.021.079V-1.5H.281V-1.85H.394v.058a.141.141,0,0,1,.049-.049.126.126,0,0,1,.067-.018l.012,0H.542Z" transform="translate(-0.281 1.859)"/>
      </g>
      <g id="Group_32" data-name="Group 32" transform="translate(76.674 147.877)">
        <path id="Path_32" data-name="Path 32" d="M.3-2.422H.418v.471H.3Z" transform="translate(-0.297 2.422)"/>
      </g>
      <g id="Group_33" data-name="Group 33" transform="translate(76.91 147.986)">
        <path id="Path_33" data-name="Path 33" d="M.606-1.793a.166.166,0,0,1,.052-.049.12.12,0,0,1,.064-.018.11.11,0,0,1,.091.039.154.154,0,0,1,.033.106V-1.5H.734v-.2a.1.1,0,0,0-.012-.055.034.034,0,0,0-.033-.018.058.058,0,0,0-.052.027.169.169,0,0,0-.018.076V-1.5H.506V-1.68A.19.19,0,0,0,.5-1.756.037.037,0,0,0,.46-1.774a.058.058,0,0,0-.052.027.153.153,0,0,0-.015.076V-1.5H.281V-1.85H.394V-1.8a.162.162,0,0,1,.046-.046A.124.124,0,0,1,.5-1.859a.112.112,0,0,1,.064.018.132.132,0,0,1,.043.049Z" transform="translate(-0.281 1.859)"/>
      </g>
      <g id="Group_34" data-name="Group 34" transform="translate(77.552 147.986)">
        <path id="Path_34" data-name="Path 34" d="M.326-1.656a.1.1,0,0,0-.055.012.039.039,0,0,0-.018.033.038.038,0,0,0,.015.033.059.059,0,0,0,.039.012.074.074,0,0,0,.055-.021.086.086,0,0,0,.021-.058v-.012ZM.5-1.7v.2H.384V-1.55A.14.14,0,0,1,.332-1.5a.14.14,0,0,1-.067.015.136.136,0,0,1-.091-.03A.112.112,0,0,1,.141-1.6a.1.1,0,0,1,.043-.088.236.236,0,0,1,.134-.03H.384v-.009a.043.043,0,0,0-.021-.039A.147.147,0,0,0,.3-1.783a.249.249,0,0,0-.067.009.341.341,0,0,0-.058.018v-.085a.487.487,0,0,1,.073-.012.472.472,0,0,1,.073-.006.193.193,0,0,1,.137.039A.154.154,0,0,1,.5-1.7Z" transform="translate(-0.141 1.859)"/>
      </g>
      <g id="Group_35" data-name="Group 35" transform="translate(78.013 147.986)">
        <path id="Path_35" data-name="Path 35" d="M.606-1.793a.166.166,0,0,1,.052-.049.12.12,0,0,1,.064-.018.11.11,0,0,1,.091.039.154.154,0,0,1,.033.106V-1.5H.734v-.2a.1.1,0,0,0-.012-.055.034.034,0,0,0-.033-.018.058.058,0,0,0-.052.027.169.169,0,0,0-.018.076V-1.5H.506V-1.68A.19.19,0,0,0,.5-1.756.037.037,0,0,0,.46-1.774a.058.058,0,0,0-.052.027.153.153,0,0,0-.015.076V-1.5H.281V-1.85H.394V-1.8a.162.162,0,0,1,.046-.046A.124.124,0,0,1,.5-1.859a.112.112,0,0,1,.064.018.132.132,0,0,1,.043.049Z" transform="translate(-0.281 1.859)"/>
      </g>
      <g id="Group_36" data-name="Group 36" transform="translate(78.909 147.877)">
        <path id="Path_36" data-name="Path 36" d="M.3-2.422H.418v.179H.6v-.179H.719v.471H.6v-.2H.418v.2H.3Z" transform="translate(-0.297 2.422)"/>
      </g>
      <g id="Group_37" data-name="Group 37" transform="translate(79.444 147.859)">
        <path id="Path_37" data-name="Path 37" d="M.281-2.379H.394v.352H.281Zm0-.137H.394v.091H.281Z" transform="translate(-0.281 2.516)"/>
      </g>
      <g id="Group_38" data-name="Group 38" transform="translate(79.64 147.859)">
        <path id="Path_38" data-name="Path 38" d="M.42-2.327v-.188H.533v.489H.42v-.052a.177.177,0,0,1-.052.046A.14.14,0,0,1,.3-2.018.13.13,0,0,1,.2-2.069.212.212,0,0,1,.156-2.2.213.213,0,0,1,.2-2.336.133.133,0,0,1,.3-2.388a.132.132,0,0,1,.064.015A.19.19,0,0,1,.42-2.327ZM.345-2.1A.063.063,0,0,0,.4-2.124.129.129,0,0,0,.42-2.2.125.125,0,0,0,.4-2.279a.061.061,0,0,0-.055-.027.061.061,0,0,0-.055.027A.137.137,0,0,0,.272-2.2a.141.141,0,0,0,.018.079A.063.063,0,0,0,.345-2.1Z" transform="translate(-0.156 2.516)"/>
      </g>
      <g id="Group_39" data-name="Group 39" transform="translate(80.097 147.986)">
        <path id="Path_39" data-name="Path 39" d="M.326-1.656a.1.1,0,0,0-.055.012.039.039,0,0,0-.018.033.038.038,0,0,0,.015.033.059.059,0,0,0,.039.012.074.074,0,0,0,.055-.021.086.086,0,0,0,.021-.058v-.012ZM.5-1.7v.2H.384V-1.55A.14.14,0,0,1,.332-1.5a.14.14,0,0,1-.067.015.136.136,0,0,1-.091-.03A.112.112,0,0,1,.141-1.6a.1.1,0,0,1,.043-.088.236.236,0,0,1,.134-.03H.384v-.009a.043.043,0,0,0-.021-.039A.147.147,0,0,0,.3-1.783a.249.249,0,0,0-.067.009.341.341,0,0,0-.058.018v-.085a.487.487,0,0,1,.073-.012.472.472,0,0,1,.073-.006.193.193,0,0,1,.137.039A.154.154,0,0,1,.5-1.7Z" transform="translate(-0.141 1.859)"/>
      </g>
      <g id="Group_40" data-name="Group 40" transform="translate(80.512 147.995)">
        <path id="Path_40" data-name="Path 40" d="M.047-1.812H.159l.094.24.079-.24H.445L.3-1.427a.226.226,0,0,1-.055.082.113.113,0,0,1-.076.024H.1V-1.4H.138a.067.067,0,0,0,.039-.009A.054.054,0,0,0,.2-1.436l0-.012Z" transform="translate(-0.047 1.813)"/>
      </g>
      <g id="Group_41" data-name="Group 41" transform="translate(80.95 147.986)">
        <path id="Path_41" data-name="Path 41" d="M.326-1.656a.1.1,0,0,0-.055.012.039.039,0,0,0-.018.033.038.038,0,0,0,.015.033.059.059,0,0,0,.039.012.074.074,0,0,0,.055-.021.086.086,0,0,0,.021-.058v-.012ZM.5-1.7v.2H.384V-1.55A.14.14,0,0,1,.332-1.5a.14.14,0,0,1-.067.015.136.136,0,0,1-.091-.03A.112.112,0,0,1,.141-1.6a.1.1,0,0,1,.043-.088.236.236,0,0,1,.134-.03H.384v-.009a.043.043,0,0,0-.021-.039A.147.147,0,0,0,.3-1.783a.249.249,0,0,0-.067.009.341.341,0,0,0-.058.018v-.085a.487.487,0,0,1,.073-.012.472.472,0,0,1,.073-.006.193.193,0,0,1,.137.039A.154.154,0,0,1,.5-1.7Z" transform="translate(-0.141 1.859)"/>
      </g>
      <g id="Group_42" data-name="Group 42" transform="translate(81.365 147.895)">
        <path id="Path_42" data-name="Path 42" d="M.214-2.328v.1H.329v.082H.214V-2a.046.046,0,0,0,.009.033.085.085,0,0,0,.039.006H.32v.082h-.1A.137.137,0,0,1,.129-1.9.13.13,0,0,1,.1-2v-.149H.047v-.082H.1v-.1Z" transform="translate(-0.047 2.328)"/>
      </g>
      <g id="Group_43" data-name="Group 43" transform="translate(70.063 148.501)">
        <path id="Path_43" data-name="Path 43" d="M.336-2.516v.073H.275a.046.046,0,0,0-.033.009.043.043,0,0,0-.009.03v.024H.327V-2.3H.233v.27H.117V-2.3H.063v-.082H.117V-2.4a.1.1,0,0,1,.033-.085.155.155,0,0,1,.1-.027Z" transform="translate(-0.063 2.516)"/>
      </g>
      <g id="Group_44" data-name="Group 44" transform="translate(70.384 148.629)">
        <path id="Path_44" data-name="Path 44" d="M.542-1.753a.11.11,0,0,0-.03-.012l-.027,0a.085.085,0,0,0-.07.03.125.125,0,0,0-.021.079V-1.5H.281V-1.85H.394v.058a.141.141,0,0,1,.049-.049.126.126,0,0,1,.067-.018l.012,0H.542Z" transform="translate(-0.281 1.859)"/>
      </g>
      <g id="Group_45" data-name="Group 45" transform="translate(70.675 148.629)">
        <path id="Path_45" data-name="Path 45" d="M.335-1.777a.069.069,0,0,0-.058.027.129.129,0,0,0-.018.076A.141.141,0,0,0,.277-1.6a.069.069,0,0,0,.058.027A.061.061,0,0,0,.39-1.6a.129.129,0,0,0,.021-.079A.118.118,0,0,0,.39-1.75.061.061,0,0,0,.335-1.777Zm0-.082a.2.2,0,0,1,.143.052.177.177,0,0,1,.052.134.178.178,0,0,1-.052.137.2.2,0,0,1-.143.049.2.2,0,0,1-.143-.049.175.175,0,0,1-.052-.137.174.174,0,0,1,.052-.134A.194.194,0,0,1,.335-1.859Z" transform="translate(-0.141 1.859)"/>
      </g>
      <g id="Group_46" data-name="Group 46" transform="translate(71.143 148.629)">
        <path id="Path_46" data-name="Path 46" d="M.606-1.793a.166.166,0,0,1,.052-.049.12.12,0,0,1,.064-.018.11.11,0,0,1,.091.039.154.154,0,0,1,.033.106V-1.5H.734v-.2a.1.1,0,0,0-.012-.055.034.034,0,0,0-.033-.018.058.058,0,0,0-.052.027.169.169,0,0,0-.018.076V-1.5H.506V-1.68A.19.19,0,0,0,.5-1.756.037.037,0,0,0,.46-1.774a.058.058,0,0,0-.052.027.153.153,0,0,0-.015.076V-1.5H.281V-1.85H.394V-1.8a.162.162,0,0,1,.046-.046A.124.124,0,0,1,.5-1.859a.112.112,0,0,1,.064.018.132.132,0,0,1,.043.049Z" transform="translate(-0.281 1.859)"/>
      </g>
      <g id="Group_47" data-name="Group 47" transform="translate(71.99 148.538)">
        <path id="Path_47" data-name="Path 47" d="M.214-2.328v.1H.329v.082H.214V-2a.046.046,0,0,0,.009.033.085.085,0,0,0,.039.006H.32v.082h-.1A.137.137,0,0,1,.129-1.9.13.13,0,0,1,.1-2v-.149H.047v-.082H.1v-.1Z" transform="translate(-0.047 2.328)"/>
      </g>
      <g id="Group_48" data-name="Group 48" transform="translate(72.344 148.501)">
        <path id="Path_48" data-name="Path 48" d="M.634-2.242v.216H.521v-.164a.464.464,0,0,0,0-.061.052.052,0,0,0-.006-.027A.052.052,0,0,0,.494-2.3.06.06,0,0,0,.47-2.3a.069.069,0,0,0-.058.027A.137.137,0,0,0,.394-2.2v.173H.281v-.489H.394v.188a.191.191,0,0,1,.052-.046.141.141,0,0,1,.064-.015A.113.113,0,0,1,.6-2.349a.166.166,0,0,1,.03.106Z" transform="translate(-0.281 2.516)"/>
      </g>
      <g id="Group_49" data-name="Group 49" transform="translate(72.773 148.629)">
        <path id="Path_49" data-name="Path 49" d="M.52-1.674v.03H.256a.081.081,0,0,0,.027.061.114.114,0,0,0,.07.018.3.3,0,0,0,.073-.009A.43.43,0,0,0,.5-1.607v.088A.349.349,0,0,1,.423-1.5a.367.367,0,0,1-.082.009.214.214,0,0,1-.149-.049.175.175,0,0,1-.052-.137.174.174,0,0,1,.052-.134.194.194,0,0,1,.143-.052.177.177,0,0,1,.134.052.177.177,0,0,1,.052.134ZM.4-1.714a.066.066,0,0,0-.018-.049.063.063,0,0,0-.049-.021.079.079,0,0,0-.055.018.094.094,0,0,0-.024.052Z" transform="translate(-0.141 1.859)"/>
      </g>
      <g id="Group_50" data-name="Group 50" transform="translate(73.464 148.519)">
        <path id="Path_50" data-name="Path 50" d="M.3-2.422H.434L.6-2.1v-.322H.719v.471H.582l-.17-.322v.322H.3Z" transform="translate(-0.297 2.422)"/>
      </g>
      <g id="Group_51" data-name="Group 51" transform="translate(73.971 148.629)">
        <path id="Path_51" data-name="Path 51" d="M.335-1.777a.069.069,0,0,0-.058.027.129.129,0,0,0-.018.076A.141.141,0,0,0,.277-1.6a.069.069,0,0,0,.058.027A.061.061,0,0,0,.39-1.6a.129.129,0,0,0,.021-.079A.118.118,0,0,0,.39-1.75.061.061,0,0,0,.335-1.777Zm0-.082a.2.2,0,0,1,.143.052.177.177,0,0,1,.052.134.178.178,0,0,1-.052.137.2.2,0,0,1-.143.049.2.2,0,0,1-.143-.049.175.175,0,0,1-.052-.137.174.174,0,0,1,.052-.134A.194.194,0,0,1,.335-1.859Z" transform="translate(-0.141 1.859)"/>
      </g>
      <g id="Group_52" data-name="Group 52" transform="translate(74.437 148.638)">
        <path id="Path_52" data-name="Path 52" d="M.266-1.6v-.216H.378v.228a.039.039,0,0,0,.009.024A.041.041,0,0,0,.4-1.542a.052.052,0,0,0,.027.006.061.061,0,0,0,.055-.027.124.124,0,0,0,.021-.076v-.173H.618v.352H.506v-.052a.169.169,0,0,1-.055.046.126.126,0,0,1-.061.015A.12.12,0,0,1,.3-1.488.172.172,0,0,1,.266-1.6Z" transform="translate(-0.266 1.813)"/>
      </g>
      <g id="Group_53" data-name="Group 53" transform="translate(74.897 148.629)">
        <path id="Path_53" data-name="Path 53" d="M.634-1.714V-1.5H.521v-.164a.464.464,0,0,0,0-.061A.052.052,0,0,0,.512-1.75a.052.052,0,0,0-.018-.018A.06.06,0,0,0,.47-1.774a.069.069,0,0,0-.058.027.137.137,0,0,0-.018.076V-1.5H.281V-1.85H.394V-1.8a.191.191,0,0,1,.052-.046.141.141,0,0,1,.064-.015A.113.113,0,0,1,.6-1.82a.166.166,0,0,1,.03.106Z" transform="translate(-0.281 1.859)"/>
      </g>
      <g id="Group_54" data-name="Group 54" transform="translate(75.581 148.519)">
        <path id="Path_54" data-name="Path 54" d="M.3-2.422H.5a.2.2,0,0,1,.137.043.138.138,0,0,1,.049.112.137.137,0,0,1-.049.112A.211.211,0,0,1,.5-2.115H.418v.164H.3Zm.121.088V-2.2H.485A.081.081,0,0,0,.54-2.218a.062.062,0,0,0,.021-.049A.063.063,0,0,0,.54-2.316a.074.074,0,0,0-.055-.018Z" transform="translate(-0.297 2.422)"/>
      </g>
      <g id="Group_55" data-name="Group 55" transform="translate(76.05 148.629)">
        <path id="Path_55" data-name="Path 55" d="M.542-1.753a.11.11,0,0,0-.03-.012l-.027,0a.085.085,0,0,0-.07.03.125.125,0,0,0-.021.079V-1.5H.281V-1.85H.394v.058a.141.141,0,0,1,.049-.049.126.126,0,0,1,.067-.018l.012,0H.542Z" transform="translate(-0.281 1.859)"/>
      </g>
      <g id="Group_56" data-name="Group 56" transform="translate(76.339 148.629)">
        <path id="Path_56" data-name="Path 56" d="M.335-1.777a.069.069,0,0,0-.058.027.129.129,0,0,0-.018.076A.141.141,0,0,0,.277-1.6a.069.069,0,0,0,.058.027A.061.061,0,0,0,.39-1.6a.129.129,0,0,0,.021-.079A.118.118,0,0,0,.39-1.75.061.061,0,0,0,.335-1.777Zm0-.082a.2.2,0,0,1,.143.052.177.177,0,0,1,.052.134.178.178,0,0,1-.052.137.2.2,0,0,1-.143.049.2.2,0,0,1-.143-.049.175.175,0,0,1-.052-.137.174.174,0,0,1,.052-.134A.194.194,0,0,1,.335-1.859Z" transform="translate(-0.141 1.859)"/>
      </g>
      <g id="Group_57" data-name="Group 57" transform="translate(76.732 148.501)">
        <path id="Path_57" data-name="Path 57" d="M-.033-2.379H.079v.346a.154.154,0,0,1-.033.106.127.127,0,0,1-.1.039H-.109v-.076h.018a.058.058,0,0,0,.046-.015.087.087,0,0,0,.012-.055Zm0-.137H.079v.091H-.033Z" transform="translate(0.109 2.516)"/>
      </g>
      <g id="Group_58" data-name="Group 58" transform="translate(77 148.629)">
        <path id="Path_58" data-name="Path 58" d="M.52-1.674v.03H.256a.081.081,0,0,0,.027.061.114.114,0,0,0,.07.018.3.3,0,0,0,.073-.009A.43.43,0,0,0,.5-1.607v.088A.349.349,0,0,1,.423-1.5a.367.367,0,0,1-.082.009.214.214,0,0,1-.149-.049.175.175,0,0,1-.052-.137.174.174,0,0,1,.052-.134.194.194,0,0,1,.143-.052.177.177,0,0,1,.134.052.177.177,0,0,1,.052.134ZM.4-1.714a.066.066,0,0,0-.018-.049.063.063,0,0,0-.049-.021.079.079,0,0,0-.055.018.094.094,0,0,0-.024.052Z" transform="translate(-0.141 1.859)"/>
      </g>
      <g id="Group_59" data-name="Group 59" transform="translate(77.436 148.629)">
        <path id="Path_59" data-name="Path 59" d="M.45-1.838v.091A.155.155,0,0,0,.4-1.768a.116.116,0,0,0-.046-.009.1.1,0,0,0-.076.027.109.109,0,0,0-.024.076A.118.118,0,0,0,.283-1.6a.1.1,0,0,0,.076.027.141.141,0,0,0,.049-.009A.138.138,0,0,0,.45-1.6v.094A.233.233,0,0,1,.4-1.495a.268.268,0,0,1-.055.006A.214.214,0,0,1,.2-1.537a.172.172,0,0,1-.055-.137A.174.174,0,0,1,.2-1.811a.218.218,0,0,1,.149-.049A.268.268,0,0,1,.4-1.853a.176.176,0,0,1,.052.015Z" transform="translate(-0.141 1.859)"/>
      </g>
      <g id="Group_60" data-name="Group 60" transform="translate(77.799 148.538)">
        <path id="Path_60" data-name="Path 60" d="M.214-2.328v.1H.329v.082H.214V-2a.046.046,0,0,0,.009.033.085.085,0,0,0,.039.006H.32v.082h-.1A.137.137,0,0,1,.129-1.9.13.13,0,0,1,.1-2v-.149H.047v-.082H.1v-.1Z" transform="translate(-0.047 2.328)"/>
      </g>
    </g>
  </g>
</svg>
