<svg width="143" height="26" viewBox="0 0 143 26" fill="none" xmlns="http://www.w3.org/2000/svg">
<path d="M16.778 25.4429H10.0311L0 0.557144H7.63935L13.4224 15.4143L19.1698 0.557144H26.8091L16.778 25.4429Z" fill="#192033"/>
<path d="M47.6152 25.4429H28.5882V0.557144H47.4724V6.57429H35.4422V10.2514H46.5085V15.7114H35.4422V19.4257H47.6152V25.4429Z" fill="#192033"/>
<path d="M69.6475 25.4429H50.6205V0.557144H69.5047V6.57429H57.4745V10.2514H68.5408V15.7114H57.4745V19.4257H69.6475V25.4429Z" fill="#192033"/>
<path d="M82.7553 0.557144C86.6583 0.557144 89.8116 1.69619 92.2152 3.97429C94.5951 6.27714 95.785 9.28572 95.785 13C95.785 16.7143 94.5951 19.7105 92.2152 21.9886C89.8116 24.2914 86.6583 25.4429 82.7553 25.4429H72.6528V0.557144H82.7553ZM82.2555 19.4257C84.2308 19.4257 85.8253 18.8314 87.039 17.6429C88.2528 16.4543 88.8596 14.9067 88.8596 13C88.8596 11.0933 88.2528 9.54572 87.039 8.35714C85.8253 7.16857 84.2308 6.57429 82.2555 6.57429H79.5068V19.4257H82.2555Z" fill="#192033"/>
<path d="M101.376 17.9771C102.447 17.9771 103.339 18.361 104.053 19.1286C104.743 19.8962 105.088 20.8 105.088 21.84C105.088 22.9295 104.743 23.8333 104.053 24.5514C103.339 25.2695 102.447 25.6286 101.376 25.6286C100.305 25.6286 99.4242 25.2695 98.734 24.5514C98.0201 23.8333 97.6631 22.9295 97.6631 21.84C97.6631 20.8 98.0201 19.8962 98.734 19.1286C99.4242 18.361 100.305 17.9771 101.376 17.9771Z" fill="#192033"/>
<path d="M107.619 25.4429V0.557144H114.473V25.4429H107.619Z" fill="#192033"/>
<path d="M130.113 0C133.73 0 136.789 1.25048 139.287 3.75143C141.762 6.27714 143 9.36 143 13C143 16.64 141.762 19.7105 139.287 22.2114C136.789 24.7371 133.73 26 130.113 26C126.496 26 123.449 24.7371 120.974 22.2114C118.476 19.7105 117.226 16.64 117.226 13C117.226 9.36 118.476 6.27714 120.974 3.75143C123.449 1.25048 126.496 0 130.113 0ZM130.113 19.5743C131.827 19.5743 133.254 18.9429 134.397 17.68C135.515 16.4419 136.075 14.8819 136.075 13C136.075 11.1429 135.515 9.58286 134.397 8.32C133.254 7.05714 131.827 6.42571 130.113 6.42571C128.4 6.42571 126.984 7.05714 125.865 8.32C124.723 9.58286 124.151 11.1429 124.151 13C124.151 14.8819 124.723 16.4419 125.865 17.68C126.984 18.9429 128.4 19.5743 130.113 19.5743Z" fill="#192033"/>
</svg>
